<svg width="1056" height="816" viewBox="0 0 792 612" xml:space="preserve"><g fill="#FFF" fill-rule="nonzero"><path d="M0.0000,612.0000L0.0000,0.0000L792.0000,0.0000L792.0000,612.0000z"/></g><g fill="none" stroke="#008B00" stroke-dasharray="none" stroke-linecap="butt" stroke-linejoin="miter" stroke-width="2.754"><path d="M153.0000,520.2000L153.0000,306.0000"/><path d="M214.2000,520.2000L214.2000,284.5800"/><path d="M275.4000,520.2000L275.4000,306.0000"/><path d="M336.6000,520.2000L336.6000,408.8160"/><path d="M397.8000,520.2000L397.8000,344.5560"/><path d="M459.0000,520.2000L459.0000,365.9760"/><path d="M520.2000,520.2000L520.2000,310.2840"/><path d="M581.4000,520.2000L581.4000,246.0240"/><path d="M642.6000,520.2000L642.6000,173.1960"/></g><g fill="#0FF" fill-rule="nonzero"><ellipse cx="153" cy="306" rx="6.12" ry="6.12"/></g><g fill="none" stroke="#000" stroke-dasharray="none" stroke-linecap="butt" stroke-linejoin="miter" stroke-width=".918"><ellipse cx="153" cy="306" rx="6.12" ry="6.12"/></g><g fill="#0FF" fill-rule="nonzero"><ellipse cx="214.2" cy="284.58" rx="6.732" ry="6.732"/></g><g fill="none" stroke="#000" stroke-dasharray="none" stroke-linecap="butt" stroke-linejoin="miter" stroke-width=".918"><ellipse cx="214.2" cy="284.58" rx="6.732" ry="6.732"/></g><g fill="#0FF" fill-rule="nonzero"><ellipse cx="275.4" cy="306" rx="6.12" ry="6.12"/></g><g fill="none" stroke="#000" stroke-dasharray="none" stroke-linecap="butt" stroke-linejoin="miter" stroke-width=".918"><ellipse cx="275.4" cy="306" rx="6.12" ry="6.12"/></g><g fill="#0FF" fill-rule="nonzero"><ellipse cx="336.6" cy="408.816" rx="3.182" ry="3.182"/></g><g fill="none" stroke="#000" stroke-dasharray="none" stroke-linecap="butt" stroke-linejoin="miter" stroke-width=".918"><ellipse cx="336.6" cy="408.816" rx="3.182" ry="3.182"/></g><g fill="#0FF" fill-rule="nonzero"><ellipse cx="397.8" cy="344.556" rx="5.018" ry="5.018"/></g><g fill="none" stroke="#000" stroke-dasharray="none" stroke-linecap="butt" stroke-linejoin="miter" stroke-width=".918"><ellipse cx="397.8" cy="344.556" rx="5.018" ry="5.018"/></g><g fill="#0FF" fill-rule="nonzero"><ellipse cx="459" cy="365.976" rx="4.406" ry="4.406"/></g><g fill="none" stroke="#000" stroke-dasharray="none" stroke-linecap="butt" stroke-linejoin="miter" stroke-width=".918"><ellipse cx="459" cy="365.976" rx="4.406" ry="4.406"/></g><g fill="#0FF" fill-rule="nonzero"><ellipse cx="520.2" cy="310.284" rx="5.998" ry="5.998"/></g><g fill="none" stroke="#000" stroke-dasharray="none" stroke-linecap="butt" stroke-linejoin="miter" stroke-width=".918"><ellipse cx="520.2" cy="310.284" rx="5.998" ry="5.998"/></g><g fill="#0FF" fill-rule="nonzero"><ellipse cx="581.4" cy="246.024" rx="7.834" ry="7.834"/></g><g fill="none" stroke="#000" stroke-dasharray="none" stroke-linecap="butt" stroke-linejoin="miter" stroke-width=".918"><ellipse cx="581.4" cy="246.024" rx="7.834" ry="7.834"/></g><g fill="#0FF" fill-rule="nonzero"><ellipse cx="642.6" cy="173.196" rx="9.914" ry="9.914"/></g><g fill="none" stroke="#000" stroke-dasharray="none" stroke-linecap="butt" stroke-linejoin="miter" stroke-width=".918"><ellipse cx="642.6" cy="173.196" rx="9.914" ry="9.914"/><path d="M91.8000,520.2000L703.8000,520.2000"/><path d="M91.8000,91.8000L703.8000,91.8000"/><path d="M153.0000,520.2000L153.0000,514.0800"/><path d="M153.0000,91.8000L153.0000,97.9200"/><path d="M275.4000,520.2000L275.4000,514.0800"/><path d="M275.4000,91.8000L275.4000,97.9200"/><path d="M397.8000,520.2000L397.8000,514.0800"/><path d="M397.8000,91.8000L397.8000,97.9200"/><path d="M520.2000,520.2000L520.2000,514.0800"/><path d="M520.2000,91.8000L520.2000,97.9200"/><path d="M642.6000,520.2000L642.6000,514.0800"/><path d="M642.6000,91.8000L642.6000,97.9200"/><path d="M91.8000,520.2000L91.8000,507.9600"/><path d="M91.8000,91.8000L91.8000,104.0400"/><path d="M214.2000,520.2000L214.2000,507.9600"/><path d="M214.2000,91.8000L214.2000,104.0400"/><path d="M336.6000,520.2000L336.6000,507.9600"/><path d="M336.6000,91.8000L336.6000,104.0400"/><path d="M459.0000,520.2000L459.0000,507.9600"/><path d="M459.0000,91.8000L459.0000,104.0400"/><path d="M581.4000,520.2000L581.4000,507.9600"/><path d="M581.4000,91.8000L581.4000,104.0400"/><path d="M703.8000,520.2000L703.8000,507.9600"/><path d="M703.8000,91.8000L703.8000,104.0400"/></g><g fill="#000" fill-rule="nonzero"><text font-family="Helvetica" font-size="612" font-style="normal" font-weight="normal" transform="matrix(0.0280,-0.0000,-0.0000,0.0280,80.3000,538.3200)">0.0</text><text font-family="Helvetica" font-size="612" font-style="normal" font-weight="normal" transform="matrix(0.0280,-0.0000,-0.0000,0.0280,202.7000,538.3200)">2.0</text><text font-family="Helvetica" font-size="612" font-style="normal" font-weight="normal" transform="matrix(0.0280,-0.0000,-0.0000,0.0280,325.6000,538.3200)">4.0</text><text font-family="Helvetica" font-size="612" font-style="normal" font-weight="normal" transform="matrix(0.0280,-0.0000,-0.0000,0.0280,447.5000,538.3200)">6.0</text><text font-family="Helvetica" font-size="612" font-style="normal" font-weight="normal" transform="matrix(0.0280,-0.0000,-0.0000,0.0280,569.9000,538.3200)">8.0</text><text font-family="Helvetica" font-size="612" font-style="normal" font-weight="normal" transform="matrix(0.0280,-0.0000,-0.0000,0.0280,686.8000,538.3200)">10.0</text></g><g fill="none" stroke="#000" stroke-dasharray="none" stroke-linecap="butt" stroke-linejoin="miter" stroke-width=".918"><path d="M91.8000,520.2000L91.8000,91.8000"/><path d="M703.8000,520.2000L703.8000,91.8000"/><path d="M91.8000,477.3600L97.9200,477.3600"/><path d="M703.8000,477.3600L697.6800,477.3600"/><path d="M91.8000,391.6800L97.9200,391.6800"/><path d="M703.8000,391.6800L697.6800,391.6800"/><path d="M91.8000,306.0000L97.9200,306.0000"/><path d="M703.8000,306.0000L697.6800,306.0000"/><path d="M91.8000,220.3200L97.9200,220.3200"/><path d="M703.8000,220.3200L697.6800,220.3200"/><path d="M91.8000,134.6400L97.9200,134.6400"/><path d="M703.8000,134.6400L697.6800,134.6400"/><path d="M91.8000,520.2000L104.0400,520.2000"/><path d="M703.8000,520.2000L691.5600,520.2000"/><path d="M91.8000,434.5200L104.0400,434.5200"/><path d="M703.8000,434.5200L691.5600,434.5200"/><path d="M91.8000,348.8400L104.0400,348.8400"/><path d="M703.8000,348.8400L691.5600,348.8400"/><path d="M91.8000,263.1600L104.0400,263.1600"/><path d="M703.8000,263.1600L691.5600,263.1600"/><path d="M91.8000,177.4800L104.0400,177.4800"/><path d="M703.8000,177.4800L691.5600,177.4800"/><path d="M91.8000,91.8000L104.0400,91.8000"/><path d="M703.8000,91.8000L691.5600,91.8000"/></g><g fill="#000" fill-rule="nonzero"><text font-family="Helvetica" font-size="612" font-style="normal" font-weight="normal" transform="matrix(0.0280,-0.0000,-0.0000,0.0280,63.6800,526.2000)">0.0</text><text font-family="Helvetica" font-size="612" font-style="normal" font-weight="normal" transform="matrix(0.0280,-0.0000,-0.0000,0.0280,53.6800,440.5200)">20.0</text><text font-family="Helvetica" font-size="612" font-style="normal" font-weight="normal" transform="matrix(0.0280,-0.0000,-0.0000,0.0280,53.6800,354.8400)">40.0</text><text font-family="Helvetica" font-size="612" font-style="normal" font-weight="normal" transform="matrix(0.0280,-0.0000,-0.0000,0.0280,53.6800,269.1600)">60.0</text><text font-family="Helvetica" font-size="612" font-style="normal" font-weight="normal" transform="matrix(0.0280,-0.0000,-0.0000,0.0280,53.6800,183.4800)">80.0</text><text font-family="Helvetica" font-size="612" font-style="normal" font-weight="normal" transform="matrix(0.0280,-0.0000,-0.0000,0.0280,44.6800,97.8000)">100.0</text></g><g fill="#000" fill-rule="nonzero"><text font-family="Helvetica" font-size="612" font-style="normal" font-weight="normal" transform="matrix(0.0420,-0.0000,-0.0000,0.0420,208.8000,49.0800)">XYSize set presentation example</text><text font-family="Times" font-size="612" font-style="normal" font-weight="normal" transform="matrix(0.0280,-0.0000,-0.0000,0.0280,275.4000,153.0000)">The normalization of the symbol sizes</text><text font-family="Times" font-size="612" font-style="normal" font-weight="normal" transform="matrix(0.0280,-0.0000,-0.0000,0.0280,275.4000,170.1360)">is defined in &quot;Plot/Graph app/Special&quot;</text></g></svg>